{
  "accessors": [
    {
      "bufferView": 2,
      "componentType": 5126,
      "count": 17623,
      "max": [
        1.7525759935379028,
        2.629096031188965,
        0.521681010723114
      ],
      "min": [
        -1.8289899826049805,
        -3.925990104675293,
        -0.8157399892807007
      ],
      "type": "VEC3"
    },
    {
      "bufferView": 2,
      "byteOffset": 211476,
      "componentType": 5126,
      "count": 17623,
      "max": [
        0.9999998807907104,
        0.9999518394470215,
        1.0
      ],
      "min": [
        -0.9999998807907104,
        -0.99997878074646,
        -1.0
      ],
      "type": "VEC3"
    },
    {
      "bufferView": 1,
      "componentType": 5126,
      "count": 17623,
      "max": [
        0.9990230202674866,
        12.90625
      ],
      "min": [
        0.0008019999950192869,
        -0.06347700208425522
      ],
      "type": "VEC2"
    },
    {
      "bufferView": 0,
      "componentType": 5125,
      "count": 55398,
      "type": "SCALAR"
    },
    {
      "bufferView": 2,
      "byteOffset": 422952,
      "componentType": 5126,
      "count": 9879,
      "max": [
        1.359071969985962,
        0.47948598861694336,
        2.9453070163726807
      ],
      "min": [
        0.18435600399971008,
        -1.6046940088272095,
        1.511451005935669
      ],
      "type": "VEC3"
    },
    {
      "bufferView": 2,
      "byteOffset": 541500,
      "componentType": 5126,
      "count": 9879,
      "max": [
        0.9999537467956543,
        0.999995231628418,
        1.0
      ],
      "min": [
        -0.9999303817749023,
        -1.0,
        -1.0
      ],
      "type": "VEC3"
    },
    {
      "bufferView": 1,
      "byteOffset": 140984,
      "componentType": 5126,
      "count": 9879,
      "max": [
        0.9970700144767761,
        0.9966999888420105
      ],
      "min": [
        0.0029980000108480453,
        0.0034179999493062496
      ],
      "type": "VEC2"
    },
    {
      "bufferView": 0,
      "byteOffset": 221592,
      "componentType": 5125,
      "count": 24786,
      "type": "SCALAR"
    },
    {
      "bufferView": 2,
      "byteOffset": 660048,
      "componentType": 5126,
      "count": 39,
      "max": [
        1.6795200109481812,
        0.8090350031852722,
        1.2330780029296875
      ],
      "min": [
        -1.7243280410766602,
        -0.595878005027771,
        0.9618380069732666
      ],
      "type": "VEC3"
    },
    {
      "bufferView": 2,
      "byteOffset": 660516,
      "componentType": 5126,
      "count": 39,
      "max": [
        0.4601095914840698,
        0.7362944483757019,
        0.8818002343177795
      ],
      "min": [
        -0.5162869095802307,
        0.15650004148483276,
        0.6764949560165405
      ],
      "type": "VEC3"
    },
    {
      "bufferView": 1,
      "byteOffset": 220016,
      "componentType": 5126,
      "count": 39,
      "max": [
        1.0007309913635254,
        1.002284049987793
      ],
      "min": [
        -0.000610999995842576,
        0.0001829999964684248
      ],
      "type": "VEC2"
    },
    {
      "bufferView": 0,
      "byteOffset": 320736,
      "componentType": 5125,
      "count": 57,
      "type": "SCALAR"
    },
    {
      "bufferView": 2,
      "byteOffset": 660984,
      "componentType": 5126,
      "count": 746,
      "max": [
        1.0916069746017456,
        -4.240108013153076,
        0.9527819752693176
      ],
      "min": [
        -1.1673860549926758,
        -4.634366989135742,
        0.10474400222301483
      ],
      "type": "VEC3"
    },
    {
      "bufferView": 2,
      "byteOffset": 669936,
      "componentType": 5126,
      "count": 746,
      "max": [
        0.9999998807907104,
        0.9999998807907104,
        1.0
      ],
      "min": [
        -0.9999998807907104,
        -0.9999998807907104,
        -1.0
      ],
      "type": "VEC3"
    },
    {
      "bufferView": 1,
      "byteOffset": 220328,
      "componentType": 5126,
      "count": 746,
      "max": [
        0.3156520128250122,
        0.9999489784240723
      ],
      "min": [
        0.0,
        0.0
      ],
      "type": "VEC2"
    },
    {
      "bufferView": 0,
      "byteOffset": 320964,
      "componentType": 5125,
      "count": 1116,
      "type": "SCALAR"
    },
    {
      "bufferView": 2,
      "byteOffset": 678888,
      "componentType": 5126,
      "count": 64679,
      "max": [
        1.9268250465393066,
        2.7305779457092285,
        0.8078539967536926
      ],
      "min": [
        -2.004246950149536,
        -4.538393020629883,
        -0.4117799997329712
      ],
      "type": "VEC3"
    },
    {
      "bufferView": 2,
      "byteOffset": 1455036,
      "componentType": 5126,
      "count": 64679,
      "max": [
        1.0,
        1.0,
        1.0
      ],
      "min": [
        -1.0,
        -1.0,
        -1.0
      ],
      "type": "VEC3"
    },
    {
      "bufferView": 1,
      "byteOffset": 226296,
      "componentType": 5126,
      "count": 64679,
      "max": [
        1.1064449548721313,
        0.9999690055847168
      ],
      "min": [
        0.00042100000428035855,
        0.0
      ],
      "type": "VEC2"
    },
    {
      "bufferView": 0,
      "byteOffset": 325428,
      "componentType": 5125,
      "count": 131004,
      "type": "SCALAR"
    },
    {
      "bufferView": 2,
      "byteOffset": 2231184,
      "componentType": 5126,
      "count": 8944,
      "max": [
        1.913822054862976,
        2.8811259269714355,
        0.718280017375946
      ],
      "min": [
        -2.0108020305633545,
        -4.43177604675293,
        -0.3817110061645508
      ],
      "type": "VEC3"
    },
    {
      "bufferView": 2,
      "byteOffset": 2338512,
      "componentType": 5126,
      "count": 8944,
      "max": [
        1.0,
        0.9999998807907104,
        1.0
      ],
      "min": [
        -0.9999998807907104,
        -0.9999998807907104,
        -1.0
      ],
      "type": "VEC3"
    },
    {
      "bufferView": 1,
      "byteOffset": 743728,
      "componentType": 5126,
      "count": 8944,
      "max": [
        0.9951170086860657,
        0.9994400143623352
      ],
      "min": [
        0.0,
        0.0
      ],
      "type": "VEC2"
    },
    {
      "bufferView": 0,
      "byteOffset": 849444,
      "componentType": 5125,
      "count": 30912,
      "type": "SCALAR"
    },
    {
      "bufferView": 2,
      "byteOffset": 2445840,
      "componentType": 5126,
      "count": 5590,
      "max": [
        1.9402140378952026,
        2.2289929389953613,
        0.7168340086936951
      ],
      "min": [
        1.7792069911956787,
        -4.107708930969238,
        -0.29516398906707764
      ],
      "type": "VEC3"
    },
    {
      "bufferView": 2,
      "byteOffset": 2512920,
      "componentType": 5126,
      "count": 5590,
      "max": [
        0.9999998807907104,
        0.9999998807907104,
        1.0
      ],
      "min": [
        -0.9999998807907104,
        -0.9999998807907104,
        -1.0
      ],
      "type": "VEC3"
    },
    {
      "bufferView": 1,
      "byteOffset": 815280,
      "componentType": 5126,
      "count": 5590,
      "max": [
        0.7548829913139343,
        0.7432510256767273
      ],
      "min": [
        0.0,
        0.0
      ],
      "type": "VEC2"
    },
    {
      "bufferView": 0,
      "byteOffset": 973092,
      "componentType": 5125,
      "count": 23154,
      "type": "SCALAR"
    },
    {
      "bufferView": 2,
      "byteOffset": 2580000,
      "componentType": 5126,
      "count": 4422,
      "max": [
        1.774839997291565,
        -0.5512620210647583,
        1.4495079517364502
      ],
      "min": [
        -1.6576529741287231,
        -2.788547992706299,
        0.8218740224838257
      ],
      "type": "VEC3"
    },
    {
      "bufferView": 2,
      "byteOffset": 2633064,
      "componentType": 5126,
      "count": 4422,
      "max": [
        0.9999823570251465,
        0.9999825954437256,
        1.0
      ],
      "min": [
        -0.9999823570251465,
        -0.9998948574066162,
        -1.0
      ],
      "type": "VEC3"
    },
    {
      "bufferView": 1,
      "byteOffset": 860000,
      "componentType": 5126,
      "count": 4422,
      "max": [
        0.23232899606227875,
        0.5935180187225342
      ],
      "min": [
        0.0,
        0.0
      ],
      "type": "VEC2"
    },
    {
      "bufferView": 0,
      "byteOffset": 1065708,
      "componentType": 5125,
      "count": 21198,
      "type": "SCALAR"
    },
    {
      "bufferView": 2,
      "byteOffset": 2686128,
      "componentType": 5126,
      "count": 9276,
      "max": [
        1.6598809957504272,
        2.0392990112304688,
        0.048858001828193665
      ],
      "min": [
        -1.738131046295166,
        -3.180661916732788,
        -0.734565019607544
      ],
      "type": "VEC3"
    },
    {
      "bufferView": 2,
      "byteOffset": 2797440,
      "componentType": 5126,
      "count": 9276,
      "max": [
        0.9999998807907104,
        0.9978591799736023,
        0.9978592991828918
      ],
      "min": [
        -0.9999998807907104,
        -0.9978591799736023,
        -0.9978592991828918
      ],
      "type": "VEC3"
    },
    {
      "bufferView": 1,
      "byteOffset": 895376,
      "componentType": 5126,
      "count": 9276,
      "max": [
        0.9941409826278687,
        0.9994400143623352
      ],
      "min": [
        0.1167600005865097,
        0.0009769999887794256
      ],
      "type": "VEC2"
    },
    {
      "bufferView": 0,
      "byteOffset": 1150500,
      "componentType": 5125,
      "count": 29016,
      "type": "SCALAR"
    },
    {
      "bufferView": 2,
      "byteOffset": 2908752,
      "componentType": 5126,
      "count": 96,
      "max": [
        -1.0845539569854736,
        2.226573944091797,
        1.3283300399780273
      ],
      "min": [
        -2.007209062576294,
        -4.110099792480469,
        -0.01734199933707714
      ],
      "type": "VEC3"
    },
    {
      "bufferView": 2,
      "byteOffset": 2909904,
      "componentType": 5126,
      "count": 96,
      "max": [
        -0.9244439601898193,
        -0.0005999999702908099,
        -0.0
      ],
      "min": [
        -0.9999998807907104,
        -0.3813181519508362,
        -0.0
      ],
      "type": "VEC3"
    },
    {
      "bufferView": 1,
      "byteOffset": 969584,
      "componentType": 5126,
      "count": 96,
      "max": [
        0.9960150122642517,
        0.6387929916381836
      ],
      "min": [
        0.07460299879312515,
        0.0747160017490387
      ],
      "type": "VEC2"
    },
    {
      "bufferView": 0,
      "byteOffset": 1266564,
      "componentType": 5125,
      "count": 144,
      "type": "SCALAR"
    },
    {
      "bufferView": 2,
      "byteOffset": 2911056,
      "componentType": 5126,
      "count": 108,
      "max": [
        1.9363629817962646,
        2.2289769649505615,
        1.3283300399780273
      ],
      "min": [
        1.1500829458236694,
        -4.107697010040283,
        -0.017340999096632004
      ],
      "type": "VEC3"
    },
    {
      "bufferView": 2,
      "byteOffset": 2912352,
      "componentType": 5126,
      "count": 108,
      "max": [
        0.9999998807907104,
        0.3802015483379364,
        -0.0
      ],
      "min": [
        -0.9249037504196167,
        0.0005999999702908099,
        -0.0
      ],
      "type": "VEC3"
    },
    {
      "bufferView": 1,
      "byteOffset": 970352,
      "componentType": 5126,
      "count": 108,
      "max": [
        1.0004019737243652,
        0.6043450236320496
      ],
      "min": [
        0.058014001697301865,
        0.07902800291776657
      ],
      "type": "VEC2"
    },
    {
      "bufferView": 0,
      "byteOffset": 1267140,
      "componentType": 5125,
      "count": 162,
      "type": "SCALAR"
    },
    {
      "bufferView": 2,
      "byteOffset": 2913648,
      "componentType": 5126,
      "count": 2184,
      "max": [
        1.0215109586715698,
        2.447943925857544,
        0.14561699330806732
      ],
      "min": [
        -1.1014920473098755,
        2.0647079944610596,
        -0.20457500219345093
      ],
      "type": "VEC3"
    },
    {
      "bufferView": 2,
      "byteOffset": 2939856,
      "componentType": 5126,
      "count": 2184,
      "max": [
        0.999944806098938,
        0.7867470979690552,
        0.7866926789283752
      ],
      "min": [
        -0.999945878982544,
        -0.7867470979690552,
        -0.7866926789283752
      ],
      "type": "VEC3"
    },
    {
      "bufferView": 1,
      "byteOffset": 971216,
      "componentType": 5126,
      "count": 2184,
      "max": [
        0.9833980202674866,
        0.997655987739563
      ],
      "min": [
        0.7788090109825134,
        0.6638180017471313
      ],
      "type": "VEC2"
    },
    {
      "bufferView": 0,
      "byteOffset": 1267788,
      "componentType": 5125,
      "count": 3822,
      "type": "SCALAR"
    },
    {
      "bufferView": 2,
      "byteOffset": 2966064,
      "componentType": 5126,
      "count": 25107,
      "max": [
        1.6979830265045166,
        5.353485107421875,
        2.1068170070648193
      ],
      "min": [
        -1.8248100280761719,
        -2.314289093017578,
        0.6995390057563782
      ],
      "type": "VEC3"
    },
    {
      "bufferView": 2,
      "byteOffset": 3267348,
      "componentType": 5126,
      "count": 25107,
      "max": [
        0.9999998807907104,
        0.9999998807907104,
        1.0
      ],
      "min": [
        -0.9999998807907104,
        -0.9999998807907104,
        -1.0
      ],
      "type": "VEC3"
    },
    {
      "bufferView": 1,
      "byteOffset": 988688,
      "componentType": 5126,
      "count": 25107,
      "max": [
        1.4921879768371582,
        0.9992619752883911
      ],
      "min": [
        0.0,
        0.0
      ],
      "type": "VEC2"
    },
    {
      "bufferView": 0,
      "byteOffset": 1283076,
      "componentType": 5125,
      "count": 52362,
      "type": "SCALAR"
    },
    {
      "bufferView": 2,
      "byteOffset": 3568632,
      "componentType": 5126,
      "count": 7574,
      "max": [
        0.34822800755500793,
        5.633172035217285,
        1.316087007522583
      ],
      "min": [
        -0.4287720024585724,
        -0.016231000423431396,
        0.749226987361908
      ],
      "type": "VEC3"
    },
    {
      "bufferView": 2,
      "byteOffset": 3659520,
      "componentType": 5126,
      "count": 7574,
      "max": [
        0.9999998807907104,
        0.999980092048645,
        0.999998927116394
      ],
      "min": [
        -0.9999998807907104,
        -0.9998975992202759,
        -0.9998934268951416
      ],
      "type": "VEC3"
    },
    {
      "bufferView": 1,
      "byteOffset": 1189544,
      "componentType": 5126,
      "count": 7574,
      "max": [
        0.9970700144767761,
        0.997655987739563
      ],
      "min": [
        0.002377999946475029,
        0.0034179999493062496
      ],
      "type": "VEC2"
    },
    {
      "bufferView": 0,
      "byteOffset": 1492524,
      "componentType": 5125,
      "count": 18825,
      "type": "SCALAR"
    },
    {
      "bufferView": 2,
      "byteOffset": 3750408,
      "componentType": 5126,
      "count": 104,
      "max": [
        1.7741769552230835,
        0.8284299969673157,
        0.9604020118713379
      ],
      "min": [
        -1.8088200092315674,
        -2.784512996673584,
        0.6705020070075989
      ],
      "type": "VEC3"
    },
    {
      "bufferView": 2,
      "byteOffset": 3751656,
      "componentType": 5126,
      "count": 104,
      "max": [
        0.9836114048957825,
        0.9998948574066162,
        -0.0
      ],
      "min": [
        -0.9871165752410889,
        -0.970943033695221,
        -0.0
      ],
      "type": "VEC3"
    },
    {
      "bufferView": 1,
      "byteOffset": 1250136,
      "componentType": 5126,
      "count": 104,
      "max": [
        0.9382339715957642,
        1.0667510032653809
      ],
      "min": [
        0.00558000011369586,
        0.03474399819970131
      ],
      "type": "VEC2"
    },
    {
      "bufferView": 0,
      "byteOffset": 1567824,
      "componentType": 5125,
      "count": 192,
      "type": "SCALAR"
    }
  ],
  "asset": {
    "extras": {
      "author": "42manako (https://sketchfab.com/42manako)",
      "license": "CC-BY-4.0 (http://creativecommons.org/licenses/by/4.0/)",
      "source": "https://sketchfab.com/3d-models/t-72b3m-obr-2022-b821cd7b4cf9482598e1d603790f9293",
      "title": "T-72B3M Obr. 2022"
    },
    "generator": "Sketchfab-16.65.0",
    "version": "2.0"
  },
  "bufferViews": [
    {
      "buffer": 0,
      "byteLength": 1568592,
      "name": "floatBufferViews",
      "target": 34963
    },
    {
      "buffer": 0,
      "byteLength": 1250968,
      "byteOffset": 1568592,
      "byteStride": 8,
      "name": "floatBufferViews",
      "target": 34962
    },
    {
      "buffer": 0,
      "byteLength": 3752904,
      "byteOffset": 2819560,
      "byteStride": 12,
      "name": "floatBufferViews",
      "target": 34962
    }
  ],
  "buffers": [
    {
      "byteLength": 6572464,
      "uri": "scene.bin"
    }
  ],
  "extensionsUsed": [
    "KHR_materials_specular"
  ],
  "images": [
    {
      "uri": "textures/chassis.0_baseColor.png"
    },
    {
      "uri": "textures/chassis.1_baseColor.png"
    },
    {
      "uri": "textures/dz_l.1_baseColor.png"
    },
    {
      "uri": "textures/k-1.0_baseColor.png"
    },
    {
      "uri": "textures/misc_a.1_baseColor.png"
    },
    {
      "uri": "textures/misc_a.2_baseColor.png"
    },
    {
      "uri": "textures/misc_a.3_baseColor.png"
    }
  ],
  "materials": [
    {
      "doubleSided": true,
      "name": "chassis.0",
      "pbrMetallicRoughness": {
        "baseColorTexture": {
          "index": 0
        },
        "metallicFactor": 0.0
      }
    },
    {
      "doubleSided": true,
      "extensions": {
        "KHR_materials_specular": {
          "specularColorFactor": [
            1.0,
            1.0,
            1.0
          ],
          "specularFactor": 0.0
        }
      },
      "name": "chassis.1",
      "pbrMetallicRoughness": {
        "baseColorTexture": {
          "index": 1
        },
        "metallicFactor": 0.0
      }
    },
    {
      "doubleSided": true,
      "name": "dz_l.1",
      "pbrMetallicRoughness": {
        "baseColorTexture": {
          "index": 2
        },
        "metallicFactor": 0.0
      }
    },
    {
      "doubleSided": true,
      "name": "dz_r.1",
      "pbrMetallicRoughness": {
        "baseColorTexture": {
          "index": 2
        },
        "metallicFactor": 0.0
      }
    },
    {
      "doubleSided": true,
      "name": "k-1.0",
      "pbrMetallicRoughness": {
        "baseColorTexture": {
          "index": 3
        },
        "metallicFactor": 0.0
      }
    },
    {
      "doubleSided": true,
      "name": "misc_a.1",
      "pbrMetallicRoughness": {
        "baseColorTexture": {
          "index": 4
        },
        "metallicFactor": 0.0
      }
    },
    {
      "alphaCutoff": 0.4881474875704535,
      "alphaMode": "MASK",
      "doubleSided": true,
      "name": "misc_a.2",
      "pbrMetallicRoughness": {
        "baseColorTexture": {
          "index": 5
        },
        "metallicFactor": 0.0
      }
    },
    {
      "doubleSided": true,
      "name": "misc_a.3",
      "pbrMetallicRoughness": {
        "baseColorTexture": {
          "index": 6
        },
        "metallicFactor": 0.0
      }
    }
  ],
  "meshes": [
    {
      "name": "Object_0",
      "primitives": [
        {
          "attributes": {
            "NORMAL": 1,
            "POSITION": 0,
            "TEXCOORD_0": 2
          },
          "indices": 3,
          "material": 1,
          "mode": 4
        }
      ]
    },
    {
      "name": "Object_1",
      "primitives": [
        {
          "attributes": {
            "NORMAL": 5,
            "POSITION": 4,
            "TEXCOORD_0": 6
          },
          "indices": 7,
          "material": 5,
          "mode": 4
        }
      ]
    },
    {
      "name": "Object_2",
      "primitives": [
        {
          "attributes": {
            "NORMAL": 9,
            "POSITION": 8,
            "TEXCOORD_0": 10
          },
          "indices": 11,
          "material": 7,
          "mode": 4
        }
      ]
    },
    {
      "name": "Object_3",
      "primitives": [
        {
          "attributes": {
            "NORMAL": 13,
            "POSITION": 12,
            "TEXCOORD_0": 14
          },
          "indices": 15,
          "material": 0,
          "mode": 4
        }
      ]
    },
    {
      "name": "Object_4",
      "primitives": [
        {
          "attributes": {
            "NORMAL": 17,
            "POSITION": 16,
            "TEXCOORD_0": 18
          },
          "indices": 19,
          "material": 0,
          "mode": 4
        }
      ]
    },
    {
      "name": "Object_5",
      "primitives": [
        {
          "attributes": {
            "NORMAL": 21,
            "POSITION": 20,
            "TEXCOORD_0": 22
          },
          "indices": 23,
          "material": 0,
          "mode": 4
        }
      ]
    },
    {
      "name": "Object_6",
      "primitives": [
        {
          "attributes": {
            "NORMAL": 25,
            "POSITION": 24,
            "TEXCOORD_0": 26
          },
          "indices": 27,
          "material": 0,
          "mode": 4
        }
      ]
    },
    {
      "name": "Object_7",
      "primitives": [
        {
          "attributes": {
            "NORMAL": 29,
            "POSITION": 28,
            "TEXCOORD_0": 30
          },
          "indices": 31,
          "material": 0,
          "mode": 4
        }
      ]
    },
    {
      "name": "Object_8",
      "primitives": [
        {
          "attributes": {
            "NORMAL": 33,
            "POSITION": 32,
            "TEXCOORD_0": 34
          },
          "indices": 35,
          "material": 0,
          "mode": 4
        }
      ]
    },
    {
      "name": "Object_9",
      "primitives": [
        {
          "attributes": {
            "NORMAL": 37,
            "POSITION": 36,
            "TEXCOORD_0": 38
          },
          "indices": 39,
          "material": 2,
          "mode": 4
        }
      ]
    },
    {
      "name": "Object_10",
      "primitives": [
        {
          "attributes": {
            "NORMAL": 41,
            "POSITION": 40,
            "TEXCOORD_0": 42
          },
          "indices": 43,
          "material": 3,
          "mode": 4
        }
      ]
    },
    {
      "name": "Object_11",
      "primitives": [
        {
          "attributes": {
            "NORMAL": 45,
            "POSITION": 44,
            "TEXCOORD_0": 46
          },
          "indices": 47,
          "material": 4,
          "mode": 4
        }
      ]
    },
    {
      "name": "Object_12",
      "primitives": [
        {
          "attributes": {
            "NORMAL": 49,
            "POSITION": 48,
            "TEXCOORD_0": 50
          },
          "indices": 51,
          "material": 4,
          "mode": 4
        }
      ]
    },
    {
      "name": "Object_13",
      "primitives": [
        {
          "attributes": {
            "NORMAL": 53,
            "POSITION": 52,
            "TEXCOORD_0": 54
          },
          "indices": 55,
          "material": 4,
          "mode": 4
        }
      ]
    },
    {
      "name": "Object_14",
      "primitives": [
        {
          "attributes": {
            "NORMAL": 57,
            "POSITION": 56,
            "TEXCOORD_0": 58
          },
          "indices": 59,
          "material": 6,
          "mode": 4
        }
      ]
    }
  ],
  "nodes": [
    {
      "children": [
        1
      ],
      "matrix": [
        1.0,
        0.0,
        0.0,
        0.0,
        0.0,
        2.220446049250313e-16,
        -1.0,
        0.0,
        0.0,
        1.0,
        2.220446049250313e-16,
        0.0,
        0.0,
        0.0,
        0.0,
        1.0
      ],
      "name": "Sketchfab_model"
    },
    {
      "children": [
        2,
        3,
        4,
        5,
        6,
        7,
        8,
        9,
        10,
        11,
        12,
        13,
        14,
        15,
        16
      ],
      "name": "t-72b3m.obj.cleaner.materialmerger.gles"
    },
    {
      "mesh": 0,
      "name": "Object_2"
    },
    {
      "mesh": 1,
      "name": "Object_3"
    },
    {
      "mesh": 2,
      "name": "Object_4"
    },
    {
      "mesh": 3,
      "name": "Object_5"
    },
    {
      "mesh": 4,
      "name": "Object_6"
    },
    {
      "mesh": 5,
      "name": "Object_7"
    },
    {
      "mesh": 6,
      "name": "Object_8"
    },
    {
      "mesh": 7,
      "name": "Object_9"
    },
    {
      "mesh": 8,
      "name": "Object_10"
    },
    {
      "mesh": 9,
      "name": "Object_11"
    },
    {
      "mesh": 10,
      "name": "Object_12"
    },
    {
      "mesh": 11,
      "name": "Object_13"
    },
    {
      "mesh": 12,
      "name": "Object_14"
    },
    {
      "mesh": 13,
      "name": "Object_15"
    },
    {
      "mesh": 14,
      "name": "Object_16"
    }
  ],
  "samplers": [
    {
      "magFilter": 9729,
      "minFilter": 9987,
      "wrapS": 10497,
      "wrapT": 10497
    }
  ],
  "scene": 0,
  "scenes": [
    {
      "name": "Sketchfab_Scene",
      "nodes": [
        0
      ]
    }
  ],
  "textures": [
    {
      "sampler": 0,
      "source": 0
    },
    {
      "sampler": 0,
      "source": 1
    },
    {
      "sampler": 0,
      "source": 2
    },
    {
      "sampler": 0,
      "source": 3
    },
    {
      "sampler": 0,
      "source": 4
    },
    {
      "sampler": 0,
      "source": 5
    },
    {
      "sampler": 0,
      "source": 6
    }
  ]
}
