{
  "accessors": [
    {
      "bufferView": 2,
      "componentType": 5126,
      "count": 4717,
      "max": [
        -9.560531616210938,
        5.669124126434326,
        54.02363586425781
      ],
      "min": [
        -12.888427734375,
        -7.8885979652404785,
        47.79759979248047
      ],
      "type": "VEC3"
    },
    {
      "bufferView": 2,
      "byteOffset": 56604,
      "componentType": 5126,
      "count": 4717,
      "max": [
        0.99997878074646,
        0.9998235106468201,
        0.9999985694885254
      ],
      "min": [
        -0.9999713897705078,
        -0.9996444582939148,
        -0.9999986886978149
      ],
      "type": "VEC3"
    },
    {
      "bufferView": 1,
      "componentType": 5126,
      "count": 4717,
      "max": [
        0.9984999895095825,
        0.9984999895095825
      ],
      "min": [
        0.001500000013038516,
        0.001500000013038516
      ],
      "type": "VEC2"
    },
    {
      "bufferView": 0,
      "componentType": 5125,
      "count": 12819,
      "type": "SCALAR"
    },
    {
      "bufferView": 2,
      "byteOffset": 113208,
      "componentType": 5126,
      "count": 5685,
      "max": [
        31.97576332092285,
        66.57918548583984,
        28.13553237915039
      ],
      "min": [
        -30.724668502807617,
        -59.55500411987305,
        4.786011219024658
      ],
      "type": "VEC3"
    },
    {
      "bufferView": 2,
      "byteOffset": 181428,
      "componentType": 5126,
      "count": 5685,
      "max": [
        0.9999821186065674,
        0.999975323677063,
        1.0
      ],
      "min": [
        -0.9999796152114868,
        -0.9999900460243225,
        -0.9999988675117493
      ],
      "type": "VEC3"
    },
    {
      "bufferView": 1,
      "byteOffset": 37736,
      "componentType": 5126,
      "count": 5685,
      "max": [
        0.9969260096549988,
        0.9996330142021179
      ],
      "min": [
        0.001167000038549304,
        0.0
      ],
      "type": "VEC2"
    },
    {
      "bufferView": 0,
      "byteOffset": 51276,
      "componentType": 5125,
      "count": 11478,
      "type": "SCALAR"
    },
    {
      "bufferView": 2,
      "byteOffset": 249648,
      "componentType": 5126,
      "count": 2791,
      "max": [
        -10.452543258666992,
        -5.635067939758301,
        51.40621566772461
      ],
      "min": [
        -11.93222427368164,
        -25.96929168701172,
        48.2397346496582
      ],
      "type": "VEC3"
    },
    {
      "bufferView": 2,
      "byteOffset": 283140,
      "componentType": 5126,
      "count": 2791,
      "max": [
        0.9999716281890869,
        0.9383227229118347,
        0.9999986886978149
      ],
      "min": [
        -0.9999872446060181,
        -0.9841808676719666,
        -0.9999926090240479
      ],
      "type": "VEC3"
    },
    {
      "bufferView": 1,
      "byteOffset": 83216,
      "componentType": 5126,
      "count": 2791,
      "max": [
        1.5017999410629272,
        0.9926999807357788
      ],
      "min": [
        0.00139999995008111,
        0.00139999995008111
      ],
      "type": "VEC2"
    },
    {
      "bufferView": 0,
      "byteOffset": 97188,
      "componentType": 5125,
      "count": 6369,
      "type": "SCALAR"
    },
    {
      "bufferView": 2,
      "byteOffset": 316632,
      "componentType": 5126,
      "count": 1726,
      "max": [
        -3.3127589225769043,
        -1.0886529684066772,
        50.49779510498047
      ],
      "min": [
        -9.841833114624023,
        -4.309587001800537,
        45.30433654785156
      ],
      "type": "VEC3"
    },
    {
      "bufferView": 2,
      "byteOffset": 337344,
      "componentType": 5126,
      "count": 1726,
      "max": [
        0.9983845949172974,
        0.9999094009399414,
        0.9995370507240295
      ],
      "min": [
        -0.9997701048851013,
        -0.9998026490211487,
        -0.9995648264884949
      ],
      "type": "VEC3"
    },
    {
      "bufferView": 1,
      "byteOffset": 105544,
      "componentType": 5126,
      "count": 1726,
      "max": [
        0.9980000257492065,
        0.9891999959945679
      ],
      "min": [
        0.0020000000949949026,
        0.0020000000949949026
      ],
      "type": "VEC2"
    },
    {
      "bufferView": 0,
      "byteOffset": 122664,
      "componentType": 5125,
      "count": 4908,
      "type": "SCALAR"
    },
    {
      "bufferView": 2,
      "byteOffset": 358056,
      "componentType": 5126,
      "count": 9882,
      "max": [
        31.651832580566406,
        65.9115982055664,
        49.26026153564453
      ],
      "min": [
        -29.88210105895996,
        -116.20408630371094,
        -0.7201600074768066
      ],
      "type": "VEC3"
    },
    {
      "bufferView": 2,
      "byteOffset": 476640,
      "componentType": 5126,
      "count": 9882,
      "max": [
        0.9999920129776001,
        0.9999839067459106,
        0.999998927116394
      ],
      "min": [
        -0.9999991655349731,
        -0.9999872446060181,
        -0.9999979734420776
      ],
      "type": "VEC3"
    },
    {
      "bufferView": 1,
      "byteOffset": 119352,
      "componentType": 5126,
      "count": 9882,
      "max": [
        0.9995269775390625,
        0.9996259808540344
      ],
      "min": [
        0.0003760000108741224,
        0.009638000279664993
      ],
      "type": "VEC2"
    },
    {
      "bufferView": 0,
      "byteOffset": 142296,
      "componentType": 5125,
      "count": 31587,
      "type": "SCALAR"
    },
    {
      "bufferView": 2,
      "byteOffset": 595224,
      "componentType": 5126,
      "count": 4676,
      "max": [
        30.666942596435547,
        66.9150619506836,
        49.02760696411133
      ],
      "min": [
        -29.600635528564453,
        -55.65566635131836,
        -1.1067290306091309
      ],
      "type": "VEC3"
    },
    {
      "bufferView": 2,
      "byteOffset": 651336,
      "componentType": 5126,
      "count": 4676,
      "max": [
        0.9999806880950928,
        0.9999891519546509,
        0.9999986886978149
      ],
      "min": [
        -0.9999806880950928,
        -0.999984860420227,
        -0.999998927116394
      ],
      "type": "VEC3"
    },
    {
      "bufferView": 1,
      "byteOffset": 198408,
      "componentType": 5126,
      "count": 4676,
      "max": [
        0.9994469881057739,
        0.9982939958572388
      ],
      "min": [
        0.004910000134259462,
        0.0014619999565184116
      ],
      "type": "VEC2"
    },
    {
      "bufferView": 0,
      "byteOffset": 268644,
      "componentType": 5125,
      "count": 14004,
      "type": "SCALAR"
    },
    {
      "bufferView": 2,
      "byteOffset": 707448,
      "componentType": 5126,
      "count": 912,
      "max": [
        31.35881996154785,
        63.010772705078125,
        21.503267288208008
      ],
      "min": [
        -29.965042114257813,
        -58.59002685546875,
        -1.98226797580719
      ],
      "type": "VEC3"
    },
    {
      "bufferView": 2,
      "byteOffset": 718392,
      "componentType": 5126,
      "count": 912,
      "max": [
        0.998013973236084,
        0.9996063113212585,
        1.0
      ],
      "min": [
        -0.9976378083229065,
        -0.9996468424797058,
        -1.0
      ],
      "type": "VEC3"
    },
    {
      "bufferView": 1,
      "byteOffset": 235816,
      "componentType": 5126,
      "count": 912,
      "max": [
        1.0012580156326294,
        9.6899995803833
      ],
      "min": [
        -0.00990500021725893,
        -8.6899995803833
      ],
      "type": "VEC2"
    },
    {
      "bufferView": 0,
      "byteOffset": 324660,
      "componentType": 5125,
      "count": 2664,
      "type": "SCALAR"
    },
    {
      "bufferView": 2,
      "byteOffset": 729336,
      "componentType": 5126,
      "count": 2366,
      "max": [
        -8.167207717895508,
        -1.2335569858551025,
        50.3320426940918
      ],
      "min": [
        -11.367958068847656,
        -4.172153949737549,
        47.73160934448242
      ],
      "type": "VEC3"
    },
    {
      "bufferView": 2,
      "byteOffset": 757728,
      "componentType": 5126,
      "count": 2366,
      "max": [
        0.9991387128829956,
        0.9288509488105774,
        0.997535228729248
      ],
      "min": [
        -0.9989903569221497,
        -0.9949952363967896,
        -0.9962418079376221
      ],
      "type": "VEC3"
    },
    {
      "bufferView": 1,
      "byteOffset": 243112,
      "componentType": 5126,
      "count": 2366,
      "max": [
        0.9980000257492065,
        0.988099992275238
      ],
      "min": [
        0.0020000000949949026,
        0.0020000000949949026
      ],
      "type": "VEC2"
    },
    {
      "bufferView": 0,
      "byteOffset": 335316,
      "componentType": 5125,
      "count": 5502,
      "type": "SCALAR"
    }
  ],
  "asset": {
    "extras": {
      "author": "mamont nikita (https://sketchfab.com/mamontnikita62)",
      "license": "CC-BY-4.0 (http://creativecommons.org/licenses/by/4.0/)",
      "source": "https://sketchfab.com/3d-models/t-62-149a2e35a5404ae986f2a328c6f57c06",
      "title": "T 62"
    },
    "generator": "Sketchfab-15.37.0",
    "version": "2.0"
  },
  "bufferViews": [
    {
      "buffer": 0,
      "byteLength": 357324,
      "name": "floatBufferViews",
      "target": 34963
    },
    {
      "buffer": 0,
      "byteLength": 262040,
      "byteOffset": 357324,
      "byteStride": 8,
      "name": "floatBufferViews",
      "target": 34962
    },
    {
      "buffer": 0,
      "byteLength": 786120,
      "byteOffset": 619364,
      "byteStride": 12,
      "name": "floatBufferViews",
      "target": 34962
    }
  ],
  "buffers": [
    {
      "byteLength": 1405484,
      "uri": "scene.bin"
    }
  ],
  "images": [
    {
      "uri": "textures/mat_0.010_baseColor.png"
    },
    {
      "uri": "textures/mat_1.010_baseColor.png"
    },
    {
      "uri": "textures/mat_11.005_baseColor.png"
    },
    {
      "uri": "textures/mat_13.005_baseColor.png"
    },
    {
      "uri": "textures/mat_14.005_baseColor.png"
    },
    {
      "uri": "textures/mat_15.005_baseColor.png"
    }
  ],
  "materials": [
    {
      "doubleSided": true,
      "name": "mat_0.010",
      "pbrMetallicRoughness": {
        "baseColorTexture": {
          "index": 0
        },
        "metallicFactor": 0.0,
        "roughnessFactor": 0.8011823178082373
      }
    },
    {
      "doubleSided": true,
      "name": "mat_1.010",
      "pbrMetallicRoughness": {
        "baseColorTexture": {
          "index": 1
        },
        "metallicFactor": 0.0,
        "roughnessFactor": 0.8011823178082373
      }
    },
    {
      "doubleSided": true,
      "name": "mat_11.005",
      "pbrMetallicRoughness": {
        "baseColorTexture": {
          "index": 2
        },
        "metallicFactor": 0.0,
        "roughnessFactor": 0.8011823178082373
      }
    },
    {
      "doubleSided": true,
      "name": "mat_13.005",
      "pbrMetallicRoughness": {
        "baseColorTexture": {
          "index": 3
        },
        "metallicFactor": 0.0,
        "roughnessFactor": 0.8011823178082373
      }
    },
    {
      "doubleSided": true,
      "name": "mat_14.005",
      "pbrMetallicRoughness": {
        "baseColorTexture": {
          "index": 4
        },
        "metallicFactor": 0.0,
        "roughnessFactor": 0.8011823178082373
      }
    },
    {
      "doubleSided": true,
      "name": "mat_15.005",
      "pbrMetallicRoughness": {
        "baseColorTexture": {
          "index": 5
        },
        "metallicFactor": 0.0,
        "roughnessFactor": 0.8011823178082373
      }
    }
  ],
  "meshes": [
    {
      "name": "Object_0",
      "primitives": [
        {
          "attributes": {
            "NORMAL": 1,
            "POSITION": 0,
            "TEXCOORD_0": 2
          },
          "indices": 3,
          "material": 0,
          "mode": 4
        }
      ]
    },
    {
      "name": "Object_1",
      "primitives": [
        {
          "attributes": {
            "NORMAL": 5,
            "POSITION": 4,
            "TEXCOORD_0": 6
          },
          "indices": 7,
          "material": 1,
          "mode": 4
        }
      ]
    },
    {
      "name": "Object_2",
      "primitives": [
        {
          "attributes": {
            "NORMAL": 9,
            "POSITION": 8,
            "TEXCOORD_0": 10
          },
          "indices": 11,
          "material": 4,
          "mode": 4
        }
      ]
    },
    {
      "name": "Object_3",
      "primitives": [
        {
          "attributes": {
            "NORMAL": 13,
            "POSITION": 12,
            "TEXCOORD_0": 14
          },
          "indices": 15,
          "material": 5,
          "mode": 4
        }
      ]
    },
    {
      "name": "Object_4",
      "primitives": [
        {
          "attributes": {
            "NORMAL": 17,
            "POSITION": 16,
            "TEXCOORD_0": 18
          },
          "indices": 19,
          "material": 1,
          "mode": 4
        }
      ]
    },
    {
      "name": "Object_5",
      "primitives": [
        {
          "attributes": {
            "NORMAL": 21,
            "POSITION": 20,
            "TEXCOORD_0": 22
          },
          "indices": 23,
          "material": 1,
          "mode": 4
        }
      ]
    },
    {
      "name": "Object_6",
      "primitives": [
        {
          "attributes": {
            "NORMAL": 25,
            "POSITION": 24,
            "TEXCOORD_0": 26
          },
          "indices": 27,
          "material": 2,
          "mode": 4
        }
      ]
    },
    {
      "name": "Object_7",
      "primitives": [
        {
          "attributes": {
            "NORMAL": 29,
            "POSITION": 28,
            "TEXCOORD_0": 30
          },
          "indices": 31,
          "material": 3,
          "mode": 4
        }
      ]
    }
  ],
  "nodes": [
    {
      "children": [
        1
      ],
      "matrix": [
        1.0,
        0.0,
        0.0,
        0.0,
        0.0,
        2.220446049250313e-16,
        -1.0,
        0.0,
        0.0,
        1.0,
        2.220446049250313e-16,
        0.0,
        0.0,
        0.0,
        0.0,
        1.0
      ],
      "name": "Sketchfab_model"
    },
    {
      "children": [
        2,
        3,
        4,
        5,
        6,
        7,
        8,
        9
      ],
      "name": "Syrian Warrior Tank 9000.obj.cleaner.materialmerger.gles"
    },
    {
      "mesh": 0,
      "name": "Object_2"
    },
    {
      "mesh": 1,
      "name": "Object_3"
    },
    {
      "mesh": 2,
      "name": "Object_4"
    },
    {
      "mesh": 3,
      "name": "Object_5"
    },
    {
      "mesh": 4,
      "name": "Object_6"
    },
    {
      "mesh": 5,
      "name": "Object_7"
    },
    {
      "mesh": 6,
      "name": "Object_8"
    },
    {
      "mesh": 7,
      "name": "Object_9"
    }
  ],
  "samplers": [
    {
      "magFilter": 9729,
      "minFilter": 9987,
      "wrapS": 10497,
      "wrapT": 10497
    }
  ],
  "scene": 0,
  "scenes": [
    {
      "name": "Sketchfab_Scene",
      "nodes": [
        0
      ]
    }
  ],
  "textures": [
    {
      "sampler": 0,
      "source": 0
    },
    {
      "sampler": 0,
      "source": 1
    },
    {
      "sampler": 0,
      "source": 2
    },
    {
      "sampler": 0,
      "source": 3
    },
    {
      "sampler": 0,
      "source": 4
    },
    {
      "sampler": 0,
      "source": 5
    }
  ]
}
